# xmcd
#
# Track frame offsets:
#	150
#	3733
#	33127
#	73207
#	101405
#	139125
#	175753
#	191525
#	218847
#	258226
#
# Disc length: 3690 seconds
#
# Revision: 1
# Processed by: cddbd v1.4PL0 Copyright (c) Steve Scherf et al.
# Submitted via: CDmax 2.0
#
DISCID=880e680a
DTITLE=Hot Tuna - Jorma Kaukonen and Jack Casady - Live in the Studios of WQIV
DTITLE=, NYC, NY - 07.24.1975 - d1
DYEAR=1975
DGENRE=Blues
TTITLE0=Intro
TTITLE1=Search My Heart
TTITLE2=Death Don't Have No Mercy
TTITLE3=I Am The Light Of This World
TTITLE4=Mann's Fate
TTITLE5=Winin' Boy Blues
TTITLE6=Embryonic Journey
TTITLE7=99 Year Blues
TTITLE8=Hesitation Blues
TTITLE9=Police Dog Blues
EXTD=Hot Tuna\n07.24.1975 \nWQIV Studio\nNew York, NY \n\nFM>?>CDR>SHN\n\n\nA
EXTD=coustic:\n\ndisc 1\n \n01. Intro\n02. Search My Heart \n03. Death Don'
EXTD=t Have No Mercy \n04. I Am The Light Of This World \n05. Mann's Fate \n0
EXTD=6. Winin' Boy Blues \n07. Embryonic Journey \n08. 99 Year Blues \n09. He
EXTD=sitation Blues \n10. Police Dog Blues \n\ndisc 2\n\n01. Conversation\n02
EXTD=Jam (Sally Where'd You Get That Liquor??]\n03. Keep Your Lamps Trimme
EXTD=d And Burning \n04. I Know You Rider\n05. I Want You To Know \n06. Kee
EXTD=p On Truckin' \n07. Never Happen No More \n08. How Long Blues \n09. Cand
EXTD=y Man\n\n\nNotes:  the entire set from the radio - probably \noff reel si
EXTD=nce it sounds great.  The Splashdown \nLP/CD left off a few tracks whic
EXTD=h are in this \nrecording.  Enjoy.
EXTT0=
EXTT1=
EXTT2=
EXTT3=
EXTT4=
EXTT5=
EXTT6=
EXTT7=
EXTT8=
EXTT9=
PLAYORDER=
